<svg xmlns="http://www.w3.org/2000/svg" width="1080" height="286" viewBox="0 0 1080 286">
  <!-- QLoRA in Pure PyTorch — standalone lower banner for the 1200x630 social card. Palette: paper #f4f0e8, ink #1a2e22, sage #5f7f67, amber #b98049, red #aa413a. -->
  <rect width="1080" height="286" fill="#f4f0e8"/>
  <path d="M0 34H1080 M0 68H1080 M0 102H1080 M0 136H1080 M0 170H1080 M0 204H1080 M0 238H1080 M0 272H1080" stroke="#d0ccc4" stroke-width="1" opacity="0.35"/>
  <!-- 1. weights are ~normal; NF4 places 16 levels at its quantiles -->
  <path d="M34 200H306" stroke="#1a2e22" stroke-width="1.6"/>
  <path d="M52 200V198.07" stroke="#5f7f67" stroke-width="2" stroke-linecap="round" opacity="0.85"/>
  <path d="M87.85 200V181.8" stroke="#5f7f67" stroke-width="2" stroke-linecap="round" opacity="0.85"/>
  <path d="M108.04 200V154.81" stroke="#5f7f67" stroke-width="2" stroke-linecap="round" opacity="0.85"/>
  <path d="M123.4 200V123.9" stroke="#5f7f67" stroke-width="2" stroke-linecap="round" opacity="0.85"/>
  <path d="M136.44 200V94.5" stroke="#5f7f67" stroke-width="2" stroke-linecap="round" opacity="0.85"/>
  <path d="M148.19 200V70.71" stroke="#5f7f67" stroke-width="2" stroke-linecap="round" opacity="0.85"/>
  <path d="M159.25 200V55.32" stroke="#5f7f67" stroke-width="2" stroke-linecap="round" opacity="0.85"/>
  <path d="M170 200V50" stroke="#b98049" stroke-width="3" stroke-linecap="round" opacity="1"/>
  <path d="M179.39 200V54.08" stroke="#5f7f67" stroke-width="2" stroke-linecap="round" opacity="0.85"/>
  <path d="M188.99 200V65.98" stroke="#5f7f67" stroke-width="2" stroke-linecap="round" opacity="0.85"/>
  <path d="M199.04 200V84.75" stroke="#5f7f67" stroke-width="2" stroke-linecap="round" opacity="0.85"/>
  <path d="M209.87 200V108.73" stroke="#5f7f67" stroke-width="2" stroke-linecap="round" opacity="0.85"/>
  <path d="M222 200V135.57" stroke="#5f7f67" stroke-width="2" stroke-linecap="round" opacity="0.85"/>
  <path d="M236.39 200V162.16" stroke="#5f7f67" stroke-width="2" stroke-linecap="round" opacity="0.85"/>
  <path d="M255.31 200V184.57" stroke="#5f7f67" stroke-width="2" stroke-linecap="round" opacity="0.85"/>
  <path d="M288 200V198.07" stroke="#5f7f67" stroke-width="2" stroke-linecap="round" opacity="0.85"/>
  <path d="M40 199.24 L45 198.86 L50 198.33 L55 197.59 L60 196.58 L65 195.22 L70 193.41 L75 191.06 L80 188.07 L85 184.31 L90 179.7 L95 174.14 L100 167.56 L105 159.94 L110 151.3 L115 141.72 L120 131.32 L125 120.34 L130 109.02 L135 97.71 L140 86.77 L145 76.61 L150 67.63 L155 60.18 L160 54.62 L165 51.17 L170 50 L175 51.17 L180 54.62 L185 60.18 L190 67.63 L195 76.61 L200 86.77 L205 97.71 L210 109.02 L215 120.34 L220 131.32 L225 141.72 L230 151.3 L235 159.94 L240 167.56 L245 174.14 L250 179.7 L255 184.31 L260 188.07 L265 191.06 L270 193.41 L275 195.22 L280 196.58 L285 197.59 L290 198.33 L295 198.86 L300 199.24" fill="none" stroke="#1a2e22" stroke-width="2.6" stroke-linejoin="round"/>
  <!-- 2. a block of full-precision values squeezed into 4-bit nibbles + one scale -->
  <rect x="372" y="112.42" width="12" height="37.58" rx="2" fill="#1a2e22" opacity=".55"/>
  <rect x="387" y="88.33" width="12" height="61.67" rx="2" fill="#1a2e22" opacity=".55"/>
  <rect x="402" y="122.36" width="12" height="27.64" rx="2" fill="#1a2e22" opacity=".55"/>
  <rect x="417" y="91.35" width="12" height="58.65" rx="2" fill="#1a2e22" opacity=".55"/>
  <rect x="432" y="102.75" width="12" height="47.25" rx="2" fill="#1a2e22" opacity=".55"/>
  <rect x="447" y="104.86" width="12" height="45.14" rx="2" fill="#1a2e22" opacity=".55"/>
  <rect x="462" y="90.37" width="12" height="59.63" rx="2" fill="#1a2e22" opacity=".55"/>
  <rect x="477" y="124.99" width="12" height="25.01" rx="2" fill="#1a2e22" opacity=".55"/>
  <rect x="492" y="88.76" width="12" height="61.24" rx="2" fill="#1a2e22" opacity=".55"/>
  <rect x="507" y="110.01" width="12" height="39.99" rx="2" fill="#1a2e22" opacity=".55"/>
  <rect x="522" y="98.38" width="12" height="51.62" rx="2" fill="#1a2e22" opacity=".55"/>
  <rect x="537" y="94.17" width="12" height="55.83" rx="2" fill="#1a2e22" opacity=".55"/>
  <rect x="552" y="116.48" width="12" height="33.52" rx="2" fill="#1a2e22" opacity=".55"/>
  <rect x="567" y="88.01" width="12" height="61.99" rx="2" fill="#1a2e22" opacity=".55"/>
  <rect x="582" y="118.12" width="12" height="31.88" rx="2" fill="#1a2e22" opacity=".55"/>
  <rect x="597" y="93.29" width="12" height="56.71" rx="2" fill="#1a2e22" opacity=".55"/>
  <path d="M368 150H614" stroke="#1a2e22" stroke-width="1.4"/>
  <path d="M490 158V186" stroke="#b98049" stroke-width="2.5" stroke-linecap="round"/>
  <path d="M482 178l8 10 8-10" fill="none" stroke="#b98049" stroke-width="2.5" stroke-linecap="round" stroke-linejoin="round"/>
  <rect x="396" y="196" width="18" height="34" rx="3" fill="#5f7f67"/>
  <path d="M405 200v26" stroke="#f4f0e8" stroke-width="1.4" opacity=".8"/>
  <rect x="418" y="196" width="18" height="34" rx="3" fill="#5f7f67"/>
  <path d="M427 200v26" stroke="#f4f0e8" stroke-width="1.4" opacity=".8"/>
  <rect x="440" y="196" width="18" height="34" rx="3" fill="#5f7f67"/>
  <path d="M449 200v26" stroke="#f4f0e8" stroke-width="1.4" opacity=".8"/>
  <rect x="462" y="196" width="18" height="34" rx="3" fill="#5f7f67"/>
  <path d="M471 200v26" stroke="#f4f0e8" stroke-width="1.4" opacity=".8"/>
  <rect x="484" y="196" width="18" height="34" rx="3" fill="#5f7f67"/>
  <path d="M493 200v26" stroke="#f4f0e8" stroke-width="1.4" opacity=".8"/>
  <rect x="506" y="196" width="18" height="34" rx="3" fill="#5f7f67"/>
  <path d="M515 200v26" stroke="#f4f0e8" stroke-width="1.4" opacity=".8"/>
  <rect x="528" y="196" width="18" height="34" rx="3" fill="#5f7f67"/>
  <path d="M537 200v26" stroke="#f4f0e8" stroke-width="1.4" opacity=".8"/>
  <rect x="550" y="196" width="18" height="34" rx="3" fill="#5f7f67"/>
  <path d="M559 200v26" stroke="#f4f0e8" stroke-width="1.4" opacity=".8"/>
  <!-- absmax scale chip, and the double-quantized scale-of-scales -->
  <rect x="578" y="196" width="26" height="34" rx="4" fill="#b98049"/>
  <path d="M585 208h12M591 202v12" stroke="#f4f0e8" stroke-width="2" stroke-linecap="round"/>
  <rect x="586" y="238" width="12" height="14" rx="2" fill="#b98049" opacity=".6"/>
  <path d="M591 230v8" stroke="#b98049" stroke-width="1.5"/>
  <!-- 3. frozen quantized W plus a trainable low-rank adapter -->
  <g transform="translate(690 50)">
    <rect x="0" y="0" width="130" height="130" rx="10" fill="#1a2e22"/>
    <path d="M22 30h86M22 50h86M22 70h86M22 90h86" stroke="#5f7f67" stroke-width="2.2" opacity=".75" stroke-dasharray="7 5"/>
    <!-- frozen -->
    <path d="M54 108 a11 11 0 0 1 22 0" fill="none" stroke="#f4f0e8" stroke-width="3"/>
    <rect x="50" y="108" width="30" height="16" rx="4" fill="#f4f0e8"/>
    <!-- plus -->
    <path d="M158 65h28M172 51v28" stroke="#1a2e22" stroke-width="4" stroke-linecap="round"/>
    <!-- A: tall thin, B: wide thin, sharing rank r -->
    <rect x="206" y="0" width="30" height="130" rx="6" fill="#b98049"/>
    <circle cx="221" cy="26" r="4.5" fill="#f4f0e8"/>
    <circle cx="221" cy="65" r="4.5" fill="#f4f0e8"/>
    <circle cx="221" cy="104" r="4.5" fill="#f4f0e8"/>
    <rect x="246" y="100" width="130" height="30" rx="6" fill="#b98049"/>
    <circle cx="272" cy="115" r="4.5" fill="#f4f0e8"/>
    <circle cx="311" cy="115" r="4.5" fill="#f4f0e8"/>
    <circle cx="350" cy="115" r="4.5" fill="#f4f0e8"/>
    <!-- gradients only reach the adapter -->
    <path d="M290 84V30M280 42l10-12 10 12" fill="none" stroke="#aa413a" stroke-width="2.4" stroke-linecap="round" stroke-linejoin="round"/>
    <path d="M332 84V46M322 58l10-12 10 12" fill="none" stroke="#aa413a" stroke-width="2.4" stroke-linecap="round" stroke-linejoin="round" opacity=".7"/>
  </g>
</svg>
